<svg width="26" height="26" viewBox="0 0 26 26" fill="none" xmlns="http://www.w3.org/2000/svg">
<g clip-path="url(#clip0_160_2808)">
<path d="M0 25.1367V1.77672C0.0208511 1.73267 0.0391627 1.68745 0.054845 1.6413C0.325685 0.659507 1.1768 0.0758466 2.18636 0.213298C3.22503 0.354812 4.25964 0.524088 5.29561 0.681175L11.487 1.6237C12.3727 1.75912 13.259 1.8898 14.144 2.02996C14.9565 2.16064 15.7142 2.90003 15.7121 4.04095C15.6972 11.2751 15.6945 18.5095 15.704 25.7441C15.704 25.828 15.6959 25.9127 15.6918 25.9966H11.1214C11.1173 25.8957 11.1092 25.7935 11.1092 25.6933C11.1092 23.9509 11.1092 22.2085 11.1092 20.4661C11.1092 19.2026 10.3292 18.4205 9.07315 18.4178C8.26063 18.4178 7.44811 18.4178 6.63559 18.4178C5.38566 18.4178 4.60903 19.1931 4.60429 20.441C4.60429 22.2168 4.60429 23.9929 4.60429 25.7691C4.60429 25.845 4.61241 25.9208 4.61647 25.9966H0.863304C0.659546 25.9358 0.474043 25.8254 0.323388 25.6754C0.172732 25.5253 0.0616231 25.3402 0 25.1367ZM5.16289 4.60971C4.8758 4.60971 4.58804 4.60091 4.30095 4.60971C4.09968 4.61436 3.90758 4.69474 3.76298 4.83481C3.61839 4.97489 3.53195 5.16435 3.52092 5.36536C3.48978 5.7662 3.78499 6.17788 4.20412 6.20361C4.82805 6.24187 5.45373 6.24187 6.07766 6.20361C6.51642 6.17653 6.78997 5.78719 6.76221 5.34775C6.74835 5.14829 6.65953 4.96146 6.51357 4.8248C6.36762 4.68814 6.17536 4.61178 5.97542 4.61107C5.70458 4.60227 5.43373 4.60971 5.16289 4.60971ZM5.15477 7.8598C4.86768 7.8598 4.57991 7.851 4.29282 7.8598C4.09193 7.8664 3.90091 7.94847 3.75785 8.08965C3.61478 8.23084 3.53018 8.42075 3.52092 8.62154C3.4952 9.01426 3.78161 9.42255 4.18787 9.44692C4.8282 9.48789 5.4705 9.48789 6.11084 9.44692C6.53402 9.41916 6.79268 9.02306 6.76221 8.59174C6.7476 8.39596 6.66057 8.21264 6.51811 8.07756C6.37564 7.94248 6.18795 7.86532 5.99167 7.86115C5.7127 7.85167 5.43373 7.86048 5.15409 7.86048L5.15477 7.8598ZM5.15477 11.1099C4.86768 11.1099 4.57991 11.1011 4.29282 11.1099C4.09193 11.1165 3.90091 11.1986 3.75785 11.3397C3.61478 11.4809 3.53018 11.6708 3.52092 11.8716C3.4952 12.2643 3.78161 12.6726 4.18787 12.697C4.8282 12.738 5.4705 12.738 6.11084 12.697C6.53402 12.6692 6.79268 12.2731 6.76221 11.8418C6.7476 11.646 6.66057 11.4627 6.51811 11.3276C6.37564 11.1926 6.18795 11.1154 5.99167 11.1112C5.7127 11.1018 5.43373 11.1106 5.15409 11.1106L5.15477 11.1099ZM5.15477 14.36C4.86768 14.36 4.57991 14.3512 4.29282 14.36C4.09193 14.3666 3.90091 14.4486 3.75785 14.5898C3.61478 14.731 3.53018 14.9209 3.52092 15.1217C3.4952 15.5144 3.78093 15.922 4.18787 15.9471C4.82822 15.9877 5.47049 15.9877 6.11084 15.9471C6.53402 15.9187 6.79268 15.5232 6.76221 15.0919C6.74778 14.8961 6.66091 14.7127 6.51857 14.5775C6.37623 14.4423 6.18862 14.365 5.99234 14.3606C5.7127 14.3518 5.43373 14.3606 5.15409 14.3606L5.15477 14.36ZM10.5716 4.60971C10.2926 4.60971 10.0136 4.60227 9.73468 4.60971C9.53393 4.6117 9.34124 4.68901 9.19478 4.82632C9.04831 4.96363 8.95875 5.15093 8.94383 5.35114C8.912 5.76553 9.18961 6.17314 9.61077 6.19955C10.2511 6.24051 10.8934 6.24051 11.5337 6.19955C11.94 6.17314 12.2108 5.77162 12.1892 5.36739C12.1764 5.16717 12.0894 4.97892 11.9451 4.83952C11.8008 4.70012 11.6097 4.61961 11.4092 4.61378C11.1268 4.60159 10.8505 4.61039 10.5682 4.60971H10.5716ZM10.5763 7.8598H9.7638H9.71301C9.51698 7.86844 9.33078 7.94808 9.18913 8.08387C9.04748 8.21967 8.96005 8.40234 8.94315 8.59784C8.90929 9.01222 9.18555 9.42255 9.60603 9.44963C10.2464 9.49094 10.8887 9.49094 11.529 9.44963C11.9474 9.42187 12.2237 9.00749 12.1871 8.59513C12.1694 8.39968 12.0809 8.21743 11.9383 8.08264C11.7956 7.94785 11.6087 7.86981 11.4125 7.86319C11.1315 7.85167 10.8505 7.86048 10.5729 7.86048L10.5763 7.8598ZM10.5824 11.1099C10.3034 11.1099 10.0238 11.1031 9.74484 11.1099C9.5394 11.109 9.34142 11.1868 9.19157 11.3273C9.04172 11.4679 8.95137 11.6605 8.93909 11.8655C8.91539 12.2894 9.20993 12.6841 9.64666 12.7092C10.2542 12.7437 10.8632 12.7437 11.4708 12.7092C11.9089 12.6848 12.2068 12.2955 12.1865 11.8723C12.1748 11.6685 12.0864 11.4767 11.9391 11.3355C11.7917 11.1943 11.5963 11.1142 11.3922 11.1112C11.1214 11.1024 10.8505 11.1099 10.5797 11.1092L10.5824 11.1099ZM10.5743 14.36H9.76177C9.74506 14.36 9.72814 14.36 9.71098 14.36C9.51495 14.3687 9.32883 14.4486 9.18748 14.5847C9.04613 14.7208 8.95927 14.9038 8.94315 15.0994C8.91065 15.5131 9.18691 15.9227 9.60739 15.9491C10.2479 15.9901 10.8905 15.9901 11.531 15.9491C11.9373 15.9227 12.2122 15.5232 12.1885 15.119C12.1766 14.9186 12.0901 14.73 11.9462 14.5902C11.8022 14.4503 11.6111 14.3694 11.4105 14.3634C11.1295 14.3518 10.8505 14.3606 10.5709 14.3606L10.5743 14.36Z" fill="#002D84"/>
<path d="M16.8091 25.9999C16.805 25.8991 16.7969 25.7968 16.7969 25.6966C16.7969 20.6287 16.7969 15.5606 16.7969 10.4923V10.1321C17.2661 10.2296 17.7015 10.319 18.1369 10.4104C20.2122 10.8451 22.2861 11.2852 24.3628 11.7151C25.218 11.8919 25.7671 12.3753 25.9662 13.2373C25.9749 13.2613 25.9867 13.2841 26.0014 13.305V24.3756C25.866 24.6708 25.7698 24.985 25.5951 25.2558C25.3148 25.6871 24.8611 25.8794 24.3763 26.0006L16.8091 25.9999ZM21.1493 14.6246C20.8784 14.6246 20.6076 14.6213 20.3368 14.6246C19.858 14.6328 19.5039 14.9767 19.5005 15.4304C19.4999 15.5389 19.521 15.6465 19.5626 15.7468C19.6042 15.847 19.6655 15.9379 19.7428 16.0141C19.8201 16.0903 19.9119 16.1502 20.0127 16.1903C20.1136 16.2304 20.2215 16.2499 20.33 16.2477C20.8631 16.2544 21.3962 16.2544 21.9293 16.2477C22.0374 16.2491 22.1446 16.229 22.2448 16.1884C22.345 16.1479 22.4361 16.0878 22.5128 16.0116C22.5895 15.9355 22.6502 15.8448 22.6914 15.7449C22.7325 15.6449 22.7534 15.5378 22.7527 15.4297C22.7493 14.9788 22.3911 14.6335 21.9144 14.6253C21.6571 14.6213 21.4032 14.6246 21.1493 14.6246ZM21.1154 19.4998C21.3775 19.4998 21.6402 19.4998 21.9022 19.4998C22.3931 19.4923 22.7547 19.1402 22.7493 18.6785C22.7445 18.2282 22.3863 17.8815 21.909 17.8768C21.3849 17.8713 20.8604 17.8713 20.3354 17.8768C19.858 17.8822 19.5032 18.2302 19.5012 18.6839C19.4992 19.1375 19.856 19.4896 20.3286 19.4964C20.5907 19.5038 20.8534 19.4998 21.1154 19.4998ZM21.1235 22.7499C21.4025 22.7499 21.6822 22.758 21.9611 22.7499C22.1644 22.7321 22.3535 22.6384 22.4909 22.4876C22.6283 22.3368 22.704 22.1397 22.7028 21.9357C22.7016 21.7316 22.6237 21.5355 22.4845 21.3863C22.3453 21.2371 22.1551 21.1457 21.9516 21.1302C21.4018 21.1208 20.852 21.1208 20.3022 21.1302C20.1962 21.1308 20.0914 21.1522 19.9937 21.1934C19.896 21.2346 19.8074 21.2946 19.7329 21.3701C19.6585 21.4456 19.5997 21.535 19.56 21.6333C19.5202 21.7316 19.5002 21.8368 19.5012 21.9428C19.5028 22.1572 19.5891 22.3623 19.7413 22.5134C19.8935 22.6644 20.0993 22.7492 20.3137 22.7492C20.5819 22.7553 20.8527 22.7492 21.1235 22.7492V22.7499Z" fill="#002D84"/>
<path d="M24.3755 26C24.8603 25.8795 25.314 25.6872 25.5943 25.2552C25.769 24.9844 25.8651 24.6695 26.0005 24.375V26H24.3755Z" fill="white"/>
<path d="M0 25.1367C0.06114 25.3409 0.172034 25.5266 0.322719 25.6773C0.473404 25.828 0.659162 25.9389 0.863304 26H0V25.1367Z" fill="white"/>
</g>
<defs>
<clipPath id="clip0_160_2808">
<rect width="26.0007" height="26" fill="white"/>
</clipPath>
</defs>
</svg>
