<svg width="19" height="18" viewBox="0 0 19 18" fill="none" xmlns="http://www.w3.org/2000/svg">
<path d="M3.99984 15.9677C3.86187 16.4827 4.24995 16.9884 4.78312 16.9884C5.15016 16.9884 5.47143 16.7419 5.56641 16.3874L6.54081 12.7502C6.65794 12.313 7.05412 12.0089 7.50675 12.0089H9.26863C9.92524 12.0089 10.4037 12.631 10.2351 13.2656L9.51741 15.968C9.38055 16.4833 9.76905 16.9884 10.3022 16.9884C10.6698 16.9884 10.9915 16.7416 11.0866 16.3865L12.0608 12.7502C12.1779 12.313 12.5741 12.0089 13.0267 12.0089H16.3072C16.6737 12.0089 16.9947 11.7631 17.09 11.4092C17.2289 10.894 16.8408 10.3874 16.3072 10.3874H13.992C13.3333 10.3874 12.8545 9.76163 13.0268 9.12585L13.4853 7.43435C13.6034 6.99854 13.9989 6.69594 14.4504 6.69594H17.7332C18.0997 6.69594 18.4207 6.45005 18.516 6.09616C18.6549 5.58097 18.2668 5.07444 17.7332 5.07444H15.4173C14.7588 5.07444 14.28 4.44901 14.452 3.81335L15.0866 1.46708C15.2266 0.949345 14.8367 0.439941 14.3003 0.439941C13.931 0.439941 13.6079 0.688453 13.5131 1.04542L12.6408 4.33106C12.5244 4.76933 12.1277 5.07444 11.6742 5.07444H9.89729C9.23878 5.07444 8.76004 4.44901 8.93197 3.81335L9.56657 1.46708C9.7066 0.949344 9.31668 0.439941 8.78034 0.439941C8.41101 0.439941 8.0879 0.688453 7.99312 1.04542L7.12076 4.33106C7.00439 4.76933 6.6077 5.07444 6.15424 5.07444H2.85256C2.48605 5.07444 2.16511 5.32033 2.06974 5.67422C1.93089 6.18941 2.31898 6.69594 2.85256 6.69594H5.17562C5.83193 6.69594 6.3103 7.31747 6.1423 7.95192L5.6944 9.64342C5.57826 10.082 5.18142 10.3874 4.72772 10.3874H1.43083C1.06232 10.3874 0.740167 10.636 0.646633 10.9924C0.511766 11.5064 0.899479 12.0089 1.43083 12.0089H3.75722C4.41473 12.0089 4.8933 12.6326 4.72316 13.2677L3.99984 15.9677ZM8.47956 10.3874C7.82205 10.3874 7.34347 9.76377 7.51363 9.12865L7.9668 7.43715C8.08393 6.99996 8.48012 6.69594 8.93274 6.69594H10.6956C11.3519 6.69594 11.8303 7.31747 11.6623 7.95192L11.2144 9.64342C11.0983 10.082 10.7014 10.3874 10.2477 10.3874H8.47956Z" fill="#002D84" stroke="#002D84" stroke-width="0.5"/>
</svg>
