<svg width="24" height="24" viewBox="0 0 24 24" fill="none" xmlns="http://www.w3.org/2000/svg">
<path d="M0 6.64602C0.116875 6.48312 0.2575 6.48249 0.43125 6.55665C3.95083 8.06354 7.47166 9.56705 10.9937 11.0672C11.1775 11.1458 11.2537 11.2573 11.2531 11.4614C11.249 15.5245 11.2477 19.5877 11.2494 23.6512C11.2494 23.9801 11.1244 24.0695 10.8244 23.9484C7.39312 22.5552 3.96187 21.1641 0.530625 19.7751C0.27 19.6699 0.12625 19.4728 0 19.2439V6.64602Z" fill="#ACBBF3"/>
<path d="M24 19.244C23.86 19.5717 23.5913 19.7321 23.2763 19.8588C19.9288 21.209 16.5833 22.5635 13.24 23.9225C12.8538 24.0791 12.75 24.0068 12.75 23.5796C12.75 19.5652 12.7481 15.5494 12.7444 11.5325C12.7444 11.2669 12.8331 11.1408 13.0713 11.04C16.5588 9.55844 20.0438 8.07077 23.5263 6.57698C23.7081 6.49902 23.8656 6.45591 24 6.64607V19.244Z" fill="#ACBBF3"/>
<path d="M12.0057 0C12.1619 0.0576811 12.3269 0.104587 12.4794 0.176212C15.6111 1.65521 18.7423 3.13612 21.8732 4.61892C22.0606 4.69764 22.2434 4.78716 22.4207 4.88705C22.5144 4.94599 22.6338 5.06389 22.6307 5.15073C22.6276 5.23757 22.5057 5.3599 22.4051 5.40427C21.2732 5.89868 20.1369 6.38041 19.0013 6.86532C16.7438 7.82836 14.4871 8.79224 12.2313 9.75698C12.1582 9.79111 12.0784 9.80836 11.9979 9.80748C11.9174 9.8066 11.8381 9.78762 11.7657 9.75191C8.39068 8.3046 5.01402 6.85919 1.63568 5.41568C1.52381 5.36751 1.37319 5.23884 1.37256 5.14629C1.37194 5.05375 1.51506 4.91747 1.62256 4.8655C4.94214 3.28592 8.2636 1.71226 11.5869 0.14452C11.7239 0.0888803 11.8637 0.0406396 12.0057 0Z" fill="#ACBBF3"/>
</svg>
