<svg width="223" height="67" viewBox="0 0 223 67" fill="none" xmlns="http://www.w3.org/2000/svg">
<path d="M134.929 19.3779C129.895 16.9618 124.206 16.3655 118.796 17.687C113.386 19.0085 108.578 22.1692 105.163 26.6492C101.747 31.1293 99.9271 36.6621 100.002 42.3377C100.077 48.0133 102.043 53.4939 105.576 57.8782C109.109 62.2624 113.999 65.2894 119.442 66.4613C124.884 67.6332 130.556 66.8803 135.524 64.3263C140.491 61.7724 144.46 57.5694 146.776 52.4087C149.091 47.2479 149.617 41.4366 148.267 35.9303" fill="#002D84"/>
<path d="M20.7042 0C21.1549 0 21.8028 0.281008 22.6479 0.843024C22.9014 0.983527 23.7746 1.57364 25.2676 2.61337C26.4225 3.42829 27.3803 4.04651 28.1408 4.46802C29.2113 5.03004 29.7465 5.78876 29.7465 6.74418C29.7465 7.53101 29.3803 8.48643 28.6479 9.61046C27.6338 11.0998 26.8873 12.4908 26.4084 13.7834C25.6197 15.891 24.7324 16.9448 23.7465 16.9448C22.8732 16.9448 20.8732 15.7645 17.7465 13.4041C16.169 12.1957 15.3803 11.0858 15.3803 10.0741C15.3803 9.42781 15.7183 8.10707 16.3944 6.11192C17.0704 4.11676 17.662 2.69767 18.169 1.85465C18.9014 0.618217 19.7465 0 20.7042 0ZM14.7887 16.9026C15.5775 16.9026 17 17.6894 19.0563 19.2631C21.6761 21.3144 22.9859 23.1129 22.9859 24.6584C22.9859 25.3047 22.8169 25.9089 22.4789 26.4709L21.3803 28.452C20.9014 29.2108 19.7324 31.8944 17.8732 36.5029C17.0563 38.5824 15.6761 42.671 13.7324 48.7689C13.4789 49.5276 13.1972 50.3566 12.8873 51.2558C12.4648 52.5484 12.2113 53.3634 12.1268 53.7006C11.8451 54.7684 11.4085 55.5552 10.8169 56.061C10.2254 56.5669 9.43662 56.8198 8.4507 56.8198C7.83099 56.8198 7.11268 56.3842 6.29577 55.5131C5.59155 54.8106 4.61972 54.3047 3.38028 53.9956C2.50704 53.7708 1.85915 53.4336 1.43662 52.984C0.478873 51.8881 0 50.9186 0 50.0756C0 48.5862 2.1831 42.657 6.5493 32.2878C9.02817 26.4709 10.9437 22.1856 12.2958 19.4317C12.662 18.6449 12.9718 18.0828 13.2254 17.7456C13.6197 17.1836 14.1408 16.9026 14.7887 16.9026Z" fill="#31CB47"/>
<path d="M40.9014 20.9913C45.7183 18.4903 48.5493 17.2398 49.3944 17.2398C50.6901 17.2398 52.2113 18.4201 53.9577 20.7805C55.9859 23.5344 57 26.218 57 28.8314C57 30.4893 56.5352 32.8639 55.6056 35.9549C54.0845 41.0412 52.6901 45.3546 51.4225 48.8953C50.1831 52.436 49.2676 54.656 48.6761 55.5552C48.1972 56.314 47.2817 56.9041 45.9296 57.3256C44.4366 57.7752 43.5493 58 43.2676 58C42.2817 58 40.7887 57.0867 38.7887 55.2602C37.0141 53.6303 36.1268 52.6327 36.1268 52.2674C36.1268 52.1269 36.2113 51.8881 36.3803 51.5509C36.662 50.764 37.2394 49.4152 38.1127 47.5044C41.3239 40.3668 43.0986 36.264 43.4366 35.1962C44.2535 32.7233 44.662 31.3464 44.662 31.0654C44.662 30.7563 44.5352 30.4893 44.2817 30.2645C44.0563 30.0397 43.7887 29.9273 43.4789 29.9273C42.9718 29.9273 42.3521 30.11 41.6197 30.4753C40.8873 30.8125 40.2958 31.22 39.8451 31.6977C39.4789 32.0911 38.831 33.5523 37.9014 36.0814C35.1408 43.3033 33.3944 47.9821 32.662 50.1177C32.1549 51.6352 31.5634 53.1948 30.8873 54.7965C30.4084 55.9205 29.8592 56.4826 29.2394 56.4826C28 56.4826 25.9718 55.4709 23.1549 53.4477C21.831 52.4922 20.9296 51.7335 20.4507 51.1715C19.9155 50.5252 19.6479 49.8508 19.6479 49.1483C19.6479 48.53 20.0704 47.3076 20.9155 45.4811C21.1127 45.0596 21.4789 44.1323 22.0141 42.6991C22.6901 40.8164 24.0704 37.6691 26.1549 33.2573C27.7606 29.8009 28.8592 27.047 29.4507 24.9956C30.0423 23.0286 30.493 21.3144 30.8028 19.8532C31.1408 18.4201 31.4084 17.5068 31.6056 17.1134C32.0845 16.186 32.6761 15.7224 33.3803 15.7224C33.7746 15.7224 34.2817 15.8488 34.9014 16.1017C35.5775 16.3546 36.2958 16.6357 37.0563 16.9448C39.0845 17.7316 40.2535 18.3358 40.5634 18.7573C40.7887 19.0664 40.9014 19.811 40.9014 20.9913Z" fill="#31CB47"/>
<path d="M66.9723 17.3722C66.3493 14.6664 65.882 12.8151 65.5705 11.8182C65.4289 11.3625 65.3581 11.0208 65.3581 10.7929C65.3581 9.51122 66.7599 8.41467 69.5636 7.50326C73.2452 6.30702 76.9551 5.70891 80.6933 5.70891C86.2156 5.70891 90.0954 6.67729 92.3327 8.61405C94.0602 10.0666 95.5753 12.0603 96.878 14.5952C97.9541 16.5889 98.4922 18.5684 98.4922 20.5337C98.4922 22.7552 97.8125 25.0908 96.4532 27.5402C93.5079 32.8093 89.5432 37.4661 84.5589 41.5105C81.0473 44.3587 78.541 45.7828 77.04 45.7828C76.2471 45.7828 75.4541 45.1277 74.6612 43.8175C74.4063 43.3618 73.7124 42.3792 72.5797 40.8697C72.3531 40.5279 71.8433 39.7874 71.0504 38.6481C70.5973 39.8158 69.7052 42.2795 68.3742 46.0391L65.2307 54.3273C64.0412 57.8306 63.3191 59.7816 63.0642 60.1803C62.4978 61.0917 61.7615 61.5474 60.8553 61.5474C60.2889 61.5474 59.8358 61.4193 59.4959 61.1629C59.2977 61.0205 58.7171 60.4794 57.7543 59.5395C56.9613 58.7705 55.8144 57.9872 54.3134 57.1897C52.8691 56.4492 51.977 55.8084 51.6372 55.2672C51.2124 54.6406 51 54.0282 51 53.4301C51 52.4902 51.977 49.7417 53.9311 45.1847C55.2055 42.1371 56.1684 39.8301 56.8197 38.2636C59.765 31.1716 62.1013 26.0022 63.8288 22.7553C64.7634 21.0179 65.8112 19.2235 66.9723 17.3722ZM80.226 18.782C78.8666 21.1175 77.1108 24.7775 74.9585 29.7618C75.3833 29.8187 75.6807 29.8472 75.8506 29.8472C76.6719 29.8472 77.7055 29.4627 78.9516 28.6937C80.226 27.8962 81.4437 26.8709 82.6048 25.6177C84.8421 23.2537 85.9607 21.3169 85.9607 19.8074C85.9607 18.7251 85.2103 18.1839 83.7093 18.1839C82.8031 18.1839 81.642 18.3833 80.226 18.782Z" fill="#002D84"/>
<path d="M177.844 4C178.297 4 178.949 4.28482 179.798 4.85445C180.053 4.99686 180.931 5.59498 182.432 6.64881C183.593 7.47478 184.556 8.10138 185.321 8.5286C186.397 9.09824 186.935 9.86724 186.935 10.8356C186.935 11.6331 186.567 12.6015 185.83 13.7408C184.811 15.2503 184.06 16.6602 183.579 17.9703C182.786 20.1064 181.894 21.1745 180.903 21.1745C180.025 21.1745 178.014 19.9783 174.871 17.5858C173.285 16.3611 172.492 15.2361 172.492 14.2107C172.492 13.5556 172.832 12.217 173.511 10.1948C174.191 8.17258 174.786 6.73425 175.295 5.8798C176.032 4.6266 176.881 4 177.844 4ZM171.897 21.1318C172.69 21.1318 174.12 21.9293 176.187 23.5243C178.821 25.6034 180.138 27.4263 180.138 28.9928C180.138 29.6478 179.968 30.2602 179.628 30.8298L178.524 32.8378C178.042 33.6068 176.867 36.3268 174.998 40.9978C174.177 43.1055 172.789 47.2496 170.835 53.4301C170.58 54.1991 170.297 55.0393 169.985 55.9508C169.561 57.2609 169.306 58.0869 169.221 58.4287C168.938 59.511 168.499 60.3085 167.904 60.8211C167.309 61.3338 166.516 61.5901 165.525 61.5901C164.902 61.5901 164.18 61.1487 163.359 60.2657C162.651 59.5537 161.674 59.041 160.428 58.7277C159.55 58.4999 158.898 58.1581 158.473 57.7024C157.511 56.5916 157.029 55.609 157.029 54.7545C157.029 53.245 159.224 47.2353 163.613 36.7256C166.106 30.8298 168.031 26.4864 169.391 23.6952C169.759 22.8977 170.07 22.328 170.325 21.9862C170.722 21.4166 171.246 21.1318 171.897 21.1318Z" fill="#002D84"/>
<path d="M204.351 25.0623C205.824 21.1033 208.019 15.9908 210.936 9.72484C212.154 7.133 212.876 5.70891 213.102 5.45257C213.357 5.19624 213.782 5.06807 214.377 5.06807C215.623 5.06807 216.543 5.15351 217.138 5.3244C217.789 5.49529 218.398 6.22158 218.964 7.50326C219.248 8.12986 219.46 8.48588 219.602 8.57132L220.579 9.084C221.145 9.3973 221.683 9.96693 222.193 10.7929C222.731 11.6189 223 12.3309 223 12.929C223 13.3563 222.745 14.111 222.235 15.1933C222.009 15.6775 221.244 17.4576 219.941 20.5337C217.194 26.7142 215.453 30.7159 214.716 32.5387C210.384 43.2479 207.806 52.5329 206.985 60.3939C206.872 61.5902 206.546 62.3449 206.008 62.6582C205.555 62.8861 205.116 63 204.691 63C203.955 63 202.808 62.7579 201.25 62.2737C199.721 61.818 198.418 61.3196 197.342 60.7784C196.408 60.3227 195.827 59.7246 195.601 58.9841C195.487 58.7277 195.36 58.2293 195.218 57.4888C191.565 60.3939 188.917 61.8465 187.275 61.8465C185.717 61.8465 183.834 60.636 181.625 58.2151C180.265 56.734 179.331 55.3526 178.821 54.071C178.368 52.9032 178.142 51.5503 178.142 50.0123C178.142 46.9078 178.708 43.7321 179.841 40.4852C180.973 37.2382 182.531 34.3616 184.513 31.8552C187.204 28.4374 191.508 25.0623 197.427 21.7299C198.249 21.2742 198.73 21.0036 198.872 20.9182C199.551 20.5194 200.089 20.3201 200.486 20.3201C201.194 20.3201 202.015 21.1318 202.95 22.7553C203.289 23.3249 203.757 24.0939 204.351 25.0623ZM201.803 32.2824C199.197 34.2192 197.002 36.3411 195.218 38.6481C192.386 42.2938 190.97 45.3983 190.97 47.9616C190.97 48.987 191.367 49.4996 192.16 49.4996C192.896 49.4996 194.524 48.4316 197.045 46.2954C197.526 43.6181 199.112 38.9471 201.803 32.2824Z" fill="#002D84"/>
<path d="M153.04 3L126.181 37.0196L113.264 23.9374L105 34.5663L126.181 59L164 12.9471L153.04 3Z" fill="#31CB47"/>
</svg>
