<svg width="16" height="18" viewBox="0 0 16 18" fill="none" xmlns="http://www.w3.org/2000/svg">
<path d="M8.0225 3.9C9.4425 3.9 10.1525 4.44 10.4125 5.3C10.5425 5.73 10.9725 6 11.4225 6H11.4825C12.1825 6 12.7025 5.29 12.4525 4.64C12.0125 3.49 11.0425 2.56 9.5225 2.19V1.5C9.5225 0.67 8.8525 0 8.0225 0C7.1925 0 6.5225 0.67 6.5225 1.5V2.16C6.1325 2.24 5.7725 2.37 5.4225 2.52L6.9325 4.03C7.2525 3.95 7.6225 3.9 8.0225 3.9ZM0.2925 1.62C-0.0975 2.01 -0.0975 2.64 0.2925 3.03L3.0225 5.77C3.0225 7.85 4.5825 8.99 6.9325 9.68L10.4425 13.19C10.1025 13.68 9.3925 14.1 8.0225 14.1C6.3725 14.1 5.5225 13.51 5.1925 12.67C5.0425 12.28 4.7025 12 4.2925 12H4.1225C3.4025 12 2.8825 12.74 3.1725 13.39C3.7625 14.72 5.0625 15.51 6.5325 15.83V16.5C6.5325 17.33 7.2025 18 8.0325 18C8.8625 18 9.5325 17.33 9.5325 16.5V15.85C10.4925 15.67 11.3625 15.3 11.9925 14.73L13.5025 16.24C13.8925 16.63 14.5225 16.63 14.9125 16.24C15.3025 15.85 15.3025 15.22 14.9125 14.83L1.7025 1.62C1.3125 1.23 0.6825 1.23 0.2925 1.62Z" fill="#002D84"/>
</svg>
