<svg width="29" height="28" viewBox="0 0 29 28" fill="none" xmlns="http://www.w3.org/2000/svg">
<path d="M7.85356 1.7211L7.89341 1.68777L7.93601 1.71693C8.52002 1.57183 9.11366 1.66833 9.7011 1.66625C14.0242 1.64959 18.3479 1.65722 22.671 1.65792C22.8496 1.65792 23.0324 1.63501 23.2028 1.71693L23.2523 1.68777L23.2935 1.72804C23.457 1.98701 23.9744 1.77942 23.9744 2.25431C24.1042 2.15086 24.2403 2.08074 24.4052 2.17516L24.39 2.16613C24.6381 2.33623 24.7137 2.6799 25.0139 2.79793C25.1541 3.10341 25.4736 3.29573 25.5395 3.64842C25.5272 3.71577 25.4955 3.77131 25.444 3.81644C25.3533 3.86018 25.2585 3.86435 25.163 3.84699C24.6553 4.2462 24.2726 3.95668 23.9002 3.61232L23.9043 3.61718C23.6425 3.01038 22.9857 3.1895 22.5501 2.92429C19.281 2.84514 16.0132 2.90971 12.7462 2.89166C11.6139 2.88541 10.4816 2.88124 9.3507 2.8986C8.81478 3.03468 8.25 2.84514 7.71065 3.16798C7.0119 3.58663 6.60515 4.0886 6.60721 4.94881C6.62233 11.1897 6.61546 17.4306 6.6134 23.6722C6.6134 24.1131 6.64844 24.556 6.55431 24.9934C6.47598 25.3572 6.64225 25.5912 6.9638 25.7335L6.95693 25.7238C7.02839 26.3487 7.54713 26.3667 7.9793 26.4577C8.40666 26.5472 8.84845 26.4639 9.28336 26.4639C13.7507 26.4681 18.2188 26.4445 22.6854 26.4861C23.5223 26.4938 23.9751 26.1598 24.2519 25.4385C24.41 25.0274 24.6092 24.6942 25.1355 24.7546C25.5409 24.8011 25.7326 24.7102 25.6192 25.3933C25.4021 26.6951 24.4842 27.1749 23.6013 27.783L23.5498 27.8282L23.4859 27.8039C18.3301 27.9101 13.1749 27.8983 8.01915 27.8115C7.89341 27.8094 7.76699 27.8705 7.64126 27.8115C6.36674 27.5532 5.37392 26.5063 5.22345 25.2385C5.1836 24.9052 5.18566 24.5657 5.18566 24.229C5.18428 17.8493 5.18772 11.4695 5.1836 5.08975C5.18291 4.14969 5.3533 3.28948 6.10771 2.64866C6.64294 2.24736 7.22627 1.94188 7.85356 1.7211Z" fill="#002D84"/>
<path d="M3.51268 21.3945L3.47971 21.4355L3.50788 21.4799C3.39726 22.2512 2.69026 22.6192 1.98739 22.2797C1.79089 22.1846 1.80188 22.0138 1.74829 21.8416C1.48995 21.0106 1.69401 20.1462 1.54217 19.3103C1.53873 19.2249 1.53461 19.1395 1.53117 19.0541C1.22611 17.8092 1.39651 16.5345 1.31406 15.2751C1.20069 13.547 1.34017 11.8099 1.17046 10.0756C1.06603 9.01198 1.312 8.8516 2.36253 8.94394C3.75934 9.06682 3.7085 9.06891 3.77102 10.5512C3.87615 13.0381 3.84385 15.523 3.74629 18.0071C3.70094 19.1353 3.77858 20.2788 3.51268 21.3945Z" fill="#002D84"/>
<path d="M22.0585 23.5738C20.4927 22.8219 19.3748 21.6958 19.0086 19.915C18.5943 17.9029 19.6174 15.7291 21.4244 14.8314C22.0929 14.7363 22.7064 14.3968 23.3887 14.3676C24.4351 14.3232 25.452 14.4079 26.2435 15.2202C26.3658 15.3459 26.4737 15.1917 26.5692 15.2723L26.5596 15.266C26.8467 15.5896 27.2088 15.8444 27.395 16.2602C27.4699 16.4283 27.7757 16.5463 27.5421 16.7671C27.327 16.9705 27.0412 17.0566 26.7705 16.8511C26.6111 16.7303 26.519 16.5185 26.2868 16.4956C25.6251 16.0193 24.7773 15.8763 24.1761 15.2931C24.2118 15.0362 24.387 15.0709 24.4379 15.08C24.073 15.2369 23.5818 15.3591 23.083 15.4486C22.3018 15.7354 21.5989 16.1589 20.9558 16.6865C20.3278 16.9636 20.3044 17.5662 20.1993 18.1237C20.1842 18.1938 20.1608 18.2619 20.1327 18.3278C19.752 19.1978 20.0021 20.276 20.773 21.0744C21.1598 21.3653 21.4917 21.7111 21.7878 22.0936C22.1073 22.5227 22.5168 22.6463 23.0534 22.6206C23.8697 22.581 24.6763 22.5692 25.4678 22.3088C26.0484 22.1179 26.2772 22.363 26.2785 23.0844C24.9539 23.9723 23.5529 24.1862 22.0585 23.5738Z" fill="#002D84"/>
<path d="M13.2174 20.8327C11.9078 20.8334 10.5983 20.8313 9.28872 20.8341C8.75555 20.8355 8.24368 20.7098 8.23544 20.0822C8.22788 19.467 8.72257 19.2809 9.26055 19.2802C11.9312 19.2754 14.6019 19.2913 17.2718 19.2698C18.053 19.2636 18.0572 19.8322 18.0826 20.3238C18.1094 20.8383 17.6463 20.8223 17.3 20.8258C15.9389 20.8403 14.5778 20.832 13.2174 20.8327Z" fill="#002D84"/>
<path d="M8.4387 16.6993C8.58642 16.3729 8.88599 16.3931 9.16219 16.3931C12.0871 16.3882 15.0119 16.3972 17.9361 16.3792C18.4239 16.3764 18.4432 16.5097 18.349 16.961C18.18 17.772 17.7774 17.9844 16.9715 17.9657C14.4073 17.9053 11.8411 17.9435 9.27556 17.9428C8.82896 17.9428 8.37686 17.9504 8.29785 17.3408C8.39473 17.2984 8.51634 17.2623 8.59398 17.3214C9.36282 17.9073 10.2539 17.7178 11.108 17.7241C13.0304 17.7386 14.9528 17.7268 16.8753 17.731C17.1178 17.7317 17.372 17.6831 17.594 17.7733C17.5005 17.638 17.3246 17.7289 17.19 17.7289C14.8319 17.722 12.4725 17.6893 10.1158 17.7421C9.27006 17.7609 8.75201 17.4505 8.4387 16.6993Z" fill="#002D84"/>
<path d="M6.96539 25.7331C6.29343 25.9608 6.23503 25.4769 6.33878 25.0694C6.52429 24.3445 6.45696 23.6225 6.45764 22.9004C6.46176 16.7901 6.44047 10.6804 6.46383 4.57009C6.46657 3.89039 6.99287 3.48146 7.5336 3.06281C8.09219 2.63097 8.68445 2.82467 9.24373 2.66846C9.50825 2.81981 9.79682 2.74413 10.073 2.74483C14.0484 2.75038 18.0245 2.74691 22 2.75247C22.2768 2.75316 22.5647 2.68095 22.8313 2.82467C23.2037 3.06906 23.9217 2.833 23.9066 3.61545C23.6056 3.53839 23.4057 3.20236 23.0464 3.27595C21.9993 3.1364 20.9467 3.20652 19.8989 3.2218C17.9036 3.25165 15.9049 3.11002 13.9165 3.23568C11.9426 3.36135 9.97272 3.06628 8.00493 3.2822C7.09731 3.55089 6.73522 3.99106 6.72148 4.95055C6.70087 6.43214 6.71323 7.91374 6.71323 9.39602C6.71323 14.3351 6.71667 19.2742 6.7098 24.214C6.70774 24.741 6.74759 25.2499 6.96539 25.7331Z" fill="#002D84"/>
<path d="M3.51289 21.3944C3.64618 18.0278 3.7355 14.6606 3.67641 11.2913C3.67298 11.1101 3.67641 10.9282 3.67573 10.7469C3.66611 9.04458 3.66611 9.06749 2.01232 9.05846C1.48808 9.05569 1.37128 9.23065 1.3754 9.72636C1.39533 12.1633 1.37746 14.6009 1.49907 17.0357C1.53274 17.7071 1.52175 18.3805 1.53137 19.0526C1.21119 18.4847 1.20157 17.864 1.20432 17.2329C1.21394 15.1889 1.20775 13.145 1.06141 11.101C1.06141 12.8312 1.02843 14.5627 1.07721 16.2915C1.09714 16.9934 0.944605 17.487 0.25066 17.7133C0.13317 16.933 0.243789 16.138 0.0191153 15.3535C-0.0928778 14.9633 0.324864 14.5842 0.300129 14.1073C0.243102 13.02 0.282952 11.9279 0.284326 10.8379C0.285013 10.4234 0.289136 10.0096 0.635421 9.70414C0.757034 9.843 0.774211 10.0117 0.773523 10.186C0.770775 10.3151 0.751537 10.4429 0.721306 10.5678C0.584578 11.1559 0.679394 11.753 0.656034 12.3452C0.637483 13.7143 0.681455 15.0848 0.637482 16.4442C0.640918 16.4345 0.695884 16.4199 0.695884 16.4199C0.695884 16.4199 0.692449 16.363 0.691075 16.3526C0.690388 15.0202 0.715809 13.6969 0.680768 12.3757C0.658782 11.5405 0.80719 10.7261 0.855286 9.90062C0.865592 9.72219 0.923993 9.53752 0.757721 9.39519C0.772836 9.26189 0.385326 9.04041 0.883455 9.00639C1.27715 8.98001 1.6942 8.93905 1.28265 8.2656C0.870401 7.59145 1.40632 6.11542 2.01026 5.79883C2.09065 6.30773 1.74161 6.72222 1.72031 7.2214C1.68458 8.05384 1.65504 8.05732 2.45617 8.07051C2.8636 8.07745 3.27654 8.03718 3.65786 8.23575C3.67435 8.64954 3.3741 8.5926 3.12401 8.59608C2.67191 8.60163 2.21913 8.59746 1.76772 8.68286C2.27478 8.67314 2.73512 9.00362 3.28272 8.79186C3.66954 8.64259 3.82551 9.04944 3.82413 9.36395C3.81726 11.8154 4.1766 14.2607 3.88185 16.7212C3.75886 17.7467 3.84406 18.7978 3.83925 19.8371C3.83719 20.3814 3.76642 20.907 3.51289 21.3944Z" fill="#F7F7F7"/>
<path d="M23.9014 3.61088C24.2875 3.61574 24.6949 4.18991 25.0584 3.56714C25.079 3.58102 25.1113 3.59144 25.1181 3.61018C25.1339 3.65809 25.1388 3.71016 25.1477 3.76084C25.2507 3.88234 25.3538 3.88651 25.4562 3.76015C25.8554 3.95732 25.7626 4.33501 25.7825 4.67174C25.766 7.49051 25.7269 10.3093 25.8031 13.1274C25.1491 13.5439 24.541 13.2641 24.5362 12.5178C24.5211 10.16 24.5328 7.80154 24.5286 5.44308C24.528 5.08414 24.5706 4.71548 24.3644 4.38778C24.2105 4.1295 24.056 3.87054 23.9014 3.61088Z" fill="#002D84"/>
<path d="M11.3524 14.5955C10.5815 14.5955 9.80987 14.5948 9.03897 14.5955C8.55596 14.5962 8.22273 14.3699 8.20761 13.8741C8.19112 13.3437 8.5271 13.0632 9.03829 13.0584C10.5808 13.0438 12.1233 13.0368 13.6651 13.0542C14.1591 13.0597 14.5205 13.3201 14.495 13.8707C14.4696 14.4254 14.0869 14.599 13.5888 14.5969C12.8433 14.5934 12.0978 14.5962 11.3524 14.5955Z" fill="#002D84"/>
<path d="M26.3446 16.4142C26.4792 16.4038 26.7142 16.1844 26.7266 16.3677C26.7822 17.1883 27.2089 16.678 27.5353 16.6718C27.1904 16.1747 26.8757 15.7199 26.5603 15.2659C28.3646 16.5246 28.9596 19.1497 27.9001 21.1908C27.7593 21.463 27.604 21.7275 27.4549 21.9955C27.101 22.3892 26.908 22.9869 26.2339 22.9717C26.0958 22.5683 26.0876 22.2448 25.4177 22.5586C24.5094 22.9842 23.4307 22.8092 22.4262 22.8349C22.0723 22.8439 21.7741 22.4878 21.6182 22.1128C21.9404 21.983 22.2166 22.1573 22.5017 22.2559C23.8278 22.7127 25.4136 22.2961 26.2862 21.2575C27.2075 20.1619 27.3607 18.6345 26.6874 17.332C26.5376 17.0411 26.2724 16.7905 26.3446 16.4142Z" fill="#002D84"/>
<path d="M9.24205 9.84651C9.49627 9.57713 9.824 9.69863 10.1181 9.69586C11.5334 9.68267 12.9488 9.6903 14.3731 9.6903C14.3532 9.93955 14.2817 10.2423 14.6095 10.4637C15.0739 10.7775 14.9544 11.2059 14.6596 11.5267C14.2529 11.9703 13.719 12.196 13.1103 11.9731C12.9076 11.8988 12.7138 11.8787 12.5105 11.8815C11.1604 11.8995 9.80752 11.8079 8.46291 12.0085C8.34611 12.0259 8.15785 12.0835 8.14411 11.9328C8.13243 11.8065 8.26847 11.6655 8.33924 11.5315C9.84737 11.4531 11.3569 11.5281 12.8657 11.501C13.1481 11.4961 13.4318 11.519 13.7108 11.4635C13.9519 11.4156 14.1642 11.3135 14.1745 11.0275C14.1862 10.704 13.9561 10.5797 13.6902 10.5179C13.438 10.4596 13.179 10.4665 12.9227 10.4859C11.8454 10.5693 10.7667 10.5339 9.68865 10.5214C8.61338 10.5089 8.61338 10.4964 8.34543 11.5392C8.0122 11.4364 7.72569 11.5697 7.4165 11.8377C7.4165 11.1129 7.4165 10.5012 7.4165 9.78958C7.64667 10.1777 7.42406 10.6734 7.85829 10.8664C8.12419 10.2568 8.56666 9.89025 9.24205 9.84651C9.98615 10.0333 10.7495 9.85276 11.4984 9.94302C10.7488 9.86318 9.98684 10.0243 9.24205 9.84651Z" fill="#FAFAFA"/>
<path d="M23.6035 27.782C23.7031 27.4877 23.9339 27.3703 24.1992 27.2349C25.0573 26.7955 25.2105 26.4775 25.1961 25.4326C25.1954 25.3861 25.2332 25.3395 25.249 25.2909C25.306 25.1153 25.6118 25.2486 25.6028 24.998C25.6022 24.9834 25.5623 24.957 25.5417 24.9577C25.2256 24.9681 24.7729 24.7487 24.6348 25.1292C24.1593 26.4372 23.2668 26.6136 21.982 26.5816C17.7427 26.4775 13.4994 26.549 9.25737 26.5358C8.57098 26.5337 7.88528 26.7351 7.18859 26.4323C6.75024 26.2421 6.67603 26.0803 6.95773 25.7228C7.51632 26.2997 8.19653 26.4435 8.98391 26.4386C13.4499 26.4129 17.9166 26.4254 22.3832 26.4282C23.0785 26.4289 23.7161 26.3254 24.0679 25.6117C24.2156 24.9167 24.577 24.5001 25.3287 24.3849C26.0233 24.278 26.1037 24.2891 26.011 25.007C25.9917 25.1528 26.0405 25.3257 25.8969 25.4416C25.4476 26.5372 24.8739 27.5085 23.6035 27.782Z" fill="#002D84"/>
<path d="M25.7375 4.56269C25.5919 4.31414 25.6894 3.97811 25.4551 3.7608C25.4716 3.35673 24.9811 3.22204 24.9721 2.83116C24.9357 2.76798 24.9453 2.71104 24.9948 2.65967C25.585 3.18385 25.8962 3.8573 25.9017 4.63698C25.9224 7.46687 25.9066 10.2968 25.9258 13.1259C25.9292 13.6071 25.7726 13.5571 25.3809 13.5064C24.5434 13.3988 24.3331 13.0058 24.3517 12.1734C24.4094 9.57956 24.3668 6.98295 24.3634 4.38704C24.7296 4.66058 24.6822 5.06257 24.6829 5.4479C24.6835 7.75152 24.6815 10.0551 24.6835 12.3595C24.6842 13.2002 24.8533 13.3162 25.7417 13.1044C25.6194 11.1896 25.7094 9.272 25.6949 7.35578C25.6887 6.42614 25.6331 5.49303 25.7375 4.56269Z" fill="#002D84"/>
<path d="M16.2163 5.46965C16.5372 5.90983 16.6911 6.43124 16.8649 6.9346C16.9446 7.1658 17.3947 7.49004 16.9337 7.68235C16.5812 7.82885 16.092 7.81982 16.0356 7.20052C15.5361 7.0443 15.014 6.72215 14.6251 7.39492C14.5955 7.46504 14.5529 7.52475 14.4966 7.57613C14.2369 7.70665 13.9827 7.71707 13.7381 7.54002C13.6906 7.47823 13.668 7.40811 13.668 7.32965C13.7456 6.93183 14.0376 6.60482 14.0369 6.17991C14.0809 5.86679 14.2396 5.60226 14.3873 5.33288C14.4389 5.27456 14.4897 5.21624 14.5357 5.15375C14.7687 4.83716 14.8779 4.38448 15.4241 4.44141C15.9456 4.49626 15.9099 4.97671 16.1009 5.2822C16.1401 5.3426 16.1518 5.42244 16.2163 5.46965Z" fill="#002D84"/>
<path d="M18.6611 7.03031C18.5608 7.1893 18.4605 7.34829 18.3608 7.50659C18.0764 7.56213 17.7624 7.76069 17.5748 7.34204L17.5728 7.34551C17.7219 7.11918 17.9603 6.95394 18.0194 6.6679C18.8205 5.69035 17.5913 5.19047 17.4731 4.40594C17.9541 4.32263 18.4034 4.21918 18.6714 4.76766C18.9916 5.42375 19.1846 5.03773 19.377 4.67393C19.6917 4.53022 20.0682 4.07061 20.2043 4.83917C20.016 5.10994 19.8277 5.38001 19.6395 5.65078C19.3282 6.05971 19.6601 6.29993 19.8758 6.5707C19.9342 6.68109 19.992 6.79148 20.0504 6.90187C20.141 7.07474 20.3712 7.23443 20.229 7.44341C20.0524 7.70237 19.7721 7.56977 19.5282 7.53019C19.3626 7.43716 19.2458 7.31219 19.2533 7.1046C19.1097 6.64915 18.9043 6.69081 18.6611 7.03031Z" fill="#002D84"/>
<path d="M3.65742 8.23691C3.0308 8.44658 2.38839 8.28967 1.75353 8.32161C1.49107 8.3348 1.39282 8.19109 1.42992 7.93073C1.53641 7.19619 1.5 6.42276 2.00912 5.79999C3.01569 5.63336 3.28777 5.8229 3.46847 6.85182C3.54955 7.31074 3.59558 7.77521 3.65742 8.23691Z" fill="#002D84"/>
<path d="M13.411 5.32212C12.4347 5.14994 12.4718 5.80881 12.4849 6.46352C12.4917 6.82177 12.5749 7.17377 12.4924 7.54035C12.4072 7.91804 12.1365 8.0562 11.8342 8.093C11.5065 8.13257 11.3381 7.87777 11.2598 7.57853C11.0791 6.88703 11.0441 6.17678 11.0441 5.46861C11.0441 5.17354 10.8537 5.32906 10.7947 5.3367C10.4731 5.37836 10.1619 5.45473 10.1687 4.95137C10.1749 4.51606 10.065 3.98285 10.7012 3.94397C11.4151 3.90023 12.1441 3.88218 12.8497 3.98007C13.6295 4.08769 13.7951 4.5723 13.4138 5.32004L13.411 5.32212Z" fill="#FBFBFB"/>
<path d="M8.00342 3.28283C8.23702 3.13492 8.4988 3.17381 8.75164 3.17381C13.2911 3.17242 17.8306 3.17381 22.3708 3.17659C22.5989 3.17659 22.8353 3.14117 23.0448 3.27588C18.0313 3.30435 13.0177 3.46892 8.00342 3.28283Z" fill="#FBFBFB"/>
<path d="M7.64404 27.8117C7.8323 27.8304 7.73955 27.3555 7.99514 27.5721C8.38677 27.904 8.82924 27.7825 9.25111 27.7832C13.4931 27.7929 17.7358 27.7818 21.9778 27.7985C22.4807 27.8006 22.9871 27.5756 23.4886 27.8033C23.1582 27.9971 22.7933 27.9623 22.4347 27.963C17.8814 27.9651 13.3282 27.9665 8.77497 27.963C8.39364 27.9623 7.99995 28.0207 7.64404 27.8117Z" fill="#002D84"/>
<path d="M19.1552 10.3512C19.1332 10.0638 19.3077 10.0027 19.542 10.0027C20.4922 10.0034 21.4432 9.98114 22.3927 10.011C22.9417 10.0277 23.2213 10.4838 23.2584 10.9302C23.2976 11.4114 23.0214 11.8606 22.4497 11.8772C21.4748 11.9057 20.4977 11.8995 19.5221 11.8814C19.0535 11.8724 18.7911 11.5641 18.6529 11.1323C18.5004 10.656 18.8069 10.4866 19.1607 10.3463C19.3538 11.4975 19.3538 11.4995 20.574 11.5002C21.0859 11.5002 21.5977 11.5218 22.1089 11.485C22.3748 11.4655 22.6414 11.3919 22.6634 11.0649C22.6881 10.6886 22.4044 10.5859 22.1096 10.5602C21.4459 10.5019 20.7794 10.5498 20.115 10.531C19.7873 10.5206 19.4431 10.5852 19.1552 10.3512Z" fill="#EFEFEF"/>
<path d="M23.2038 1.71719C18.1153 1.71719 13.0262 1.71719 7.93701 1.71719C8.20016 1.57068 8.48873 1.62554 8.76562 1.62554C13.3271 1.62068 17.8893 1.62137 22.4508 1.62415C22.7036 1.62415 22.9647 1.58665 23.2038 1.71719Z" fill="#002D84"/>
<path d="M8.21245 0.818604C13.0165 0.818604 17.8205 0.818604 22.6252 0.818604C22.6252 0.844292 22.6252 0.870675 22.6259 0.896364C17.8116 0.896364 12.9972 0.896364 8.18359 0.896364C8.19253 0.869981 8.20214 0.844292 8.21245 0.818604Z" fill="#FBFBFB"/>
<path d="M8.21118 1.13062C13.0159 1.13062 17.8199 1.13062 22.6246 1.13062C22.6246 1.1563 22.6246 1.18269 22.6253 1.20837C17.811 1.20837 12.9967 1.20837 8.18164 1.20837C8.19126 1.18269 8.20157 1.1563 8.21118 1.13062Z" fill="#F8F8F8"/>
<path d="M8.43986 16.6995C8.59788 16.7849 8.85416 16.8355 8.89745 16.9612C9.1977 17.8373 9.90813 17.6457 10.543 17.6464C12.9237 17.6499 15.3051 17.6478 17.7559 17.6478C17.5278 17.8977 17.3038 17.7943 17.1155 17.795C14.7053 17.8047 12.295 17.7908 9.88477 17.8089C9.29664 17.813 8.77721 17.6721 8.29969 17.3403C8.15404 17.0834 8.20007 16.8696 8.43986 16.6995Z" fill="#002D84"/>
<path d="M26.2335 22.9708C26.768 22.8083 27.0119 22.2751 27.4544 21.9946C27.0999 23.0791 26.1366 23.4609 25.2297 23.7991C24.377 24.117 23.4467 24.1996 22.5315 23.9171C22.3274 23.8539 22.1433 23.7907 22.0581 23.5727C23.5195 23.8636 24.9562 23.9803 26.2335 22.9708Z" fill="#F4F4F4"/>
<path d="M26.5686 15.2718C26.368 15.3357 26.1784 15.7203 26.0423 15.1184C25.9441 14.6824 23.966 14.3873 23.417 14.5443C22.8 14.7206 22.1301 14.7074 21.5702 15.0858C21.5214 15.0011 21.4726 14.9157 21.4238 14.831C22.9876 13.8403 25.1917 14.0291 26.5686 15.2718Z" fill="#002D84"/>
<path d="M0.757675 9.39622C1.23726 9.14211 1.11358 9.54479 1.10809 9.74891C1.08266 10.6487 0.857989 11.5263 0.86486 12.4379C0.875853 13.9278 0.965173 15.4226 0.7776 16.9097C0.550864 16.7431 0.600334 16.4939 0.599647 16.2675C0.59415 14.5533 0.61064 12.8392 0.584531 11.1264C0.579722 10.8014 0.873792 10.4883 0.616824 10.1613C0.623008 10.0093 0.629191 9.85722 0.635375 9.70448C0.74462 9.6295 0.762484 9.51702 0.757675 9.39622Z" fill="#002D84"/>
<path d="M1.54173 19.3093C1.61731 19.9974 1.68327 20.6868 1.7719 21.3735C1.81931 21.7421 1.65441 22.258 2.34492 22.2177C2.88291 22.1858 3.51227 22.3614 3.50815 21.4797C3.47723 21.8504 3.80015 22.3823 3.22507 22.5253C2.3305 22.7481 1.79939 22.41 1.63174 21.6949C1.44554 20.9013 1.51287 20.1064 1.54173 19.3093Z" fill="#EFEFEF"/>
<path d="M10.6818 15.9541C13.0158 15.9541 15.3491 15.9541 17.6831 15.9541C17.6831 15.9798 17.6838 16.0054 17.6838 16.0311C15.3408 16.0311 12.9979 16.0311 10.6543 16.0311C10.6632 16.0048 10.6728 15.9798 10.6818 15.9541Z" fill="#F9F9F9"/>
<path d="M14.4378 5.45677C14.288 5.67408 14.1053 5.8782 14.1595 6.17674C14.1121 6.34753 14.1156 6.53846 13.9672 6.66899C13.6545 6.88213 13.7576 7.45491 13.2588 7.50768C13.1763 7.41117 13.0932 7.31466 13.0107 7.21816C13.59 7.09805 13.0314 6.29616 13.5212 6.24409C14.1534 6.17674 14.1053 5.72754 14.0661 5.3804C14.007 4.85692 14.1424 4.64239 14.6618 4.7014C14.7607 5.00619 14.6597 5.24988 14.4378 5.45677Z" fill="#FBFBFB"/>
<path d="M1.95508 22.9175C1.9489 22.8286 1.89393 22.646 2.02104 22.6918C2.37351 22.8203 2.73148 22.7633 3.08395 22.8064C3.29488 22.8321 3.65422 22.8598 3.55254 23.1653C3.27015 24.0172 3.49413 24.9899 2.92729 25.7654C2.86134 25.7189 2.8153 25.6571 2.78919 25.5801C2.70949 25.135 2.87851 24.7198 2.94722 24.2935C3.1025 23.3271 3.06746 23.2681 2.1186 23.0785C2.0444 23.0459 1.99012 22.9918 1.95508 22.9175Z" fill="#EFEFEF"/>
<path d="M25.8985 25.4428C25.8985 25.1137 25.8985 24.7846 25.8985 24.452C25.0404 24.511 24.3231 24.6992 24.0688 25.6129C24.2008 24.6714 24.9614 24.0132 25.8071 24.1396C26.1362 24.1889 26.2709 24.4603 26.2043 24.7693C26.1534 25.0067 26.1369 25.2831 25.8985 25.4428Z" fill="#F4F4F4"/>
<path d="M13.2598 7.50806C13.6136 7.29631 13.4467 6.72492 13.8898 6.57495C14.0004 6.87627 13.8218 7.09983 13.6899 7.33588L13.6933 7.32825C13.8562 7.83576 14.1956 7.54555 14.4793 7.50529L14.5247 7.47127L14.5151 7.41503C14.5577 7.26993 14.5927 7.11371 14.8036 7.20605C14.8435 7.58096 14.6477 7.81008 14.3412 7.97184C14.1344 7.9281 13.9276 7.82674 13.7215 7.97393C13.5229 7.86353 13.2639 7.81424 13.2598 7.50806Z" fill="#EDEDED"/>
<path d="M14.4375 5.45729C14.5124 5.20526 14.5866 4.95393 14.6615 4.70191C14.858 4.30755 15.2201 4.21244 15.5732 4.33185C16.081 4.50404 16.0837 5.03933 16.215 5.46909C16.1923 5.45659 16.1621 5.45034 16.149 5.4316C15.3863 4.34574 15.3884 4.34713 14.6436 5.36772C14.6051 5.42118 14.5076 5.42882 14.4375 5.45729Z" fill="#002D84"/>
<path d="M7.50322 5.83052C7.50322 6.95804 7.50322 8.08626 7.50322 9.21377C7.4778 9.21377 7.45169 9.21377 7.42627 9.21308C7.42627 8.08209 7.42627 6.95179 7.42627 5.8208C7.45169 5.82427 7.4778 5.82774 7.50322 5.83052Z" fill="#FAFAFA"/>
<path d="M2.24908 25.4564C1.85814 24.6448 1.62798 23.8145 1.95433 22.9175L1.99693 22.9654C2.30061 23.6999 2.40573 24.4712 2.41672 25.2599C2.38717 25.3488 2.33084 25.4134 2.24908 25.4564Z" fill="#EFEFEF"/>
<path d="M7.85337 1.72119C7.73931 2.06069 7.41982 2.00237 7.1711 2.09401C6.9162 2.18774 6.59533 2.28494 6.55961 2.59458C6.47235 3.3562 6.24836 2.57237 6.10889 2.64873C6.55274 2.07388 7.13538 1.76701 7.85337 1.72119Z" fill="#002D84"/>
<path d="M14.8027 7.2067C14.6378 7.17893 14.6097 7.34486 14.5142 7.41568C14.7409 6.75683 15.54 6.64297 16.0347 7.19976C15.6238 7.14283 15.2122 7.08104 14.8027 7.2067Z" fill="#002D84"/>
<path d="M24.4063 2.17515C24.0964 2.18626 24.0895 2.45148 23.9761 2.78752C23.9122 2.27513 23.8573 1.8655 23.2836 1.98145C23.1936 1.9995 23.2843 1.81759 23.2953 1.72803C23.7233 1.73011 24.095 1.87522 24.4063 2.17515Z" fill="#002D84"/>
<path d="M12.6086 3.725C11.9538 3.725 11.299 3.725 10.6442 3.725C10.6442 3.6993 10.6442 3.67291 10.6436 3.64722C11.2942 3.64722 11.9456 3.64722 12.5962 3.64722C12.6004 3.67291 12.6045 3.6993 12.6086 3.725Z" fill="#FBFBFB"/>
<path d="M19.5273 7.5309C19.9568 7.53784 20.3113 7.4823 20.0495 6.90259C20.3099 7.07824 20.6342 7.39969 20.4638 7.60866C20.2701 7.84819 19.8207 7.84749 19.5273 7.5309Z" fill="#002D84"/>
<path d="M24.9955 2.66059C24.988 2.71752 24.9804 2.77514 24.9729 2.83208C24.819 2.86748 24.5682 3.11604 24.5984 2.70641C24.6156 2.46966 24.3978 2.3683 24.3916 2.16626C24.6623 2.24402 24.8581 2.41551 24.9955 2.66059Z" fill="#002D84"/>
<path d="M20.2027 4.84009C20.031 4.2555 19.6593 4.68943 19.3755 4.67485C19.5053 4.28118 19.8338 4.33187 20.1361 4.33117C20.257 4.33117 20.4233 4.29715 20.4604 4.44781C20.5092 4.6443 20.4034 4.78593 20.2027 4.84009Z" fill="#002D84"/>
<path d="M2.24902 25.4565C2.26826 25.3975 2.28681 25.3378 2.30605 25.2787C2.5692 25.235 2.67707 25.5016 2.88251 25.5738C2.89762 25.6377 2.91205 25.7016 2.92717 25.7654C2.3143 26.5285 2.46408 25.5842 2.24902 25.4565Z" fill="#A8A8A8"/>
<path d="M16.0618 3.64864C15.7065 3.59727 15.3472 3.5931 14.9927 3.52715C15.3561 3.48411 15.7265 3.35706 16.0618 3.64864Z" fill="#FAFAFA"/>
<path d="M7.77415 13.3074C7.86278 13.6156 7.88889 13.91 7.77827 14.2995C7.65598 13.9031 7.69239 13.599 7.77415 13.3074Z" fill="#F9F9F9"/>
<path d="M19.8758 6.57134C19.4581 6.35332 19.2149 6.09018 19.6395 5.65137C19.5076 6.01311 19.7645 6.27348 19.8758 6.57134Z" fill="#002D84"/>
<path d="M23.0137 13.515C23.3187 13.4262 23.6101 13.3991 23.9955 13.5109C23.6025 13.6337 23.3016 13.5969 23.0137 13.515Z" fill="#FAFAFA"/>
<path d="M18.6611 7.03049C18.6714 6.84026 18.7106 6.64308 18.947 6.66877C19.1785 6.69376 19.3001 6.85345 19.2534 7.10616C19.0878 6.82637 18.8769 6.90899 18.6611 7.03049Z" fill="#002D84"/>
<path d="M17.5748 7.34302C17.794 7.60754 18.0956 7.46938 18.3608 7.50756C18.11 7.89498 17.7617 7.75057 17.4559 7.63601C17.3604 7.5999 17.4456 7.41036 17.5748 7.34302Z" fill="#002D84"/>
<path d="M13.4122 5.32007C13.8135 5.38186 13.7152 5.58945 13.5723 5.88938C13.3504 5.69637 13.4349 5.49294 13.4102 5.32146C13.4102 5.32215 13.4122 5.32007 13.4122 5.32007Z" fill="#FBFBFB"/>
<path d="M14.6956 3.82191C14.6461 4.04825 14.5396 4.17253 14.2915 4.16697C14.341 3.94133 14.4475 3.81705 14.6956 3.82191Z" fill="#FBFBFB"/>
<path d="M4.4969 4.14767C4.45224 3.85954 4.54087 3.71998 4.69821 3.54224C4.80402 3.81093 4.66798 3.95743 4.4969 4.14767Z" fill="#F8F8F8"/>
<path d="M17.154 6.21875C17.3141 6.32914 17.4755 6.38468 17.5037 6.60963C17.2694 6.59991 17.1169 6.53534 17.154 6.21875Z" fill="#F9F9F9"/>
<path d="M18.0184 6.66772C18.0685 7.02736 17.8507 7.20718 17.5718 7.34534C17.6309 7.0593 17.8246 6.86351 18.0184 6.66772Z" fill="#002D84"/>
<path d="M18.4138 10.5174C18.4083 10.2675 18.5312 10.1599 18.7552 10.1099C18.7601 10.3605 18.6377 10.4681 18.4138 10.5174Z" fill="#F9F9F9"/>
<path d="M19.1275 16.5448C19.0759 16.6066 19.0258 16.7191 18.9481 16.7448C18.8567 16.7746 18.8444 16.6635 18.8794 16.6004C18.9261 16.5164 18.9983 16.4462 19.0594 16.3699C19.078 16.4164 19.0959 16.4622 19.1275 16.5448Z" fill="#F8F8F8"/>
<path d="M14.81 14.2795C14.9075 14.4302 14.7962 14.5489 14.7564 14.6767C14.7241 14.6621 14.6636 14.6482 14.663 14.6336C14.6609 14.4989 14.6004 14.3351 14.81 14.2795Z" fill="#F8F8F8"/>
<path d="M20.6448 14.7808C20.5314 14.7961 20.4456 14.7871 20.4882 14.6843C20.5122 14.6253 20.5967 14.5719 20.6633 14.5573C20.7204 14.5448 20.7904 14.5906 20.8543 14.6115C20.7767 14.6739 20.6991 14.7371 20.6448 14.7808Z" fill="#F8F8F8"/>
<path d="M13.7207 7.97377C13.9268 7.77103 14.1329 7.7745 14.3404 7.97168C14.1343 8.12582 13.9268 7.98071 13.7207 7.97377Z" fill="#FBFBFB"/>
<path d="M22.8308 2.82506C18.5936 2.82506 14.3564 2.82784 10.1192 2.81951C9.8258 2.81881 9.49738 2.93826 9.24316 2.66951C13.4804 2.66951 17.7176 2.66673 21.9548 2.67506C22.2481 2.67506 22.5766 2.55562 22.8308 2.82506Z" fill="#002D84"/>
<path d="M24.9227 25.5964C24.9475 25.9804 24.5785 26.0012 24.4445 26.3289C24.316 25.7999 24.7832 25.8186 24.9227 25.5964Z" fill="#002D84"/>
<path d="M8.00721 2.20093C7.74612 2.43837 7.40602 2.39463 6.96973 2.56543C7.32769 2.11484 7.68635 2.22592 8.00721 2.20093Z" fill="#002D84"/>
<path d="M8.00732 2.20092C8.23474 1.96071 8.49857 2.03499 8.76789 2.20092C8.51506 2.20092 8.26153 2.20092 8.00732 2.20092Z" fill="#002D84"/>
<path d="M8.59961 2.43322C8.76038 2.32216 8.91635 2.33673 9.12728 2.42628C8.92666 2.5422 8.77069 2.54914 8.59961 2.43322Z" fill="#002D84"/>
<path d="M25.4559 3.76123C25.4202 3.87995 25.5384 4.09516 25.3323 4.10002C25.166 4.10349 25.164 3.90355 25.1475 3.76192C25.2498 3.76192 25.3529 3.76192 25.4559 3.76123Z" fill="#002D84"/>
<path d="M26.3445 16.4144C27.2239 17.6009 27.6266 18.8819 27.0611 20.3329C26.295 22.2977 24.1823 23.1906 22.2509 22.3811C22.04 22.2922 21.8291 22.2026 21.6181 22.1131C21.3117 21.8173 21.0053 21.5222 20.6988 21.2265C20.1141 20.3239 19.6249 19.4005 20.053 18.2723C20.0983 18.2397 20.1031 18.2015 20.0674 18.1584C20.1821 17.5502 20.3903 16.9907 20.8747 16.5748C21.4704 15.9735 22.1946 15.5931 22.984 15.3265C23.3942 15.1675 23.8064 15.1897 24.2207 15.3091C25.0068 15.5236 25.7179 15.8854 26.3445 16.4144Z" fill="#FDFDFD"/>
<path d="M20.0529 18.2722C19.9484 19.3282 20.1628 20.3134 20.6987 21.2263C19.8028 20.5571 19.4572 18.9741 20.0529 18.2722Z" fill="#002D84"/>
<path d="M20.8747 16.5747C20.6054 17.1023 20.3367 17.6307 20.0674 18.1583C20.0674 17.4904 20.1272 16.8538 20.8747 16.5747Z" fill="#002D84"/>
<path d="M24.2211 15.3088C23.8089 15.3144 23.3966 15.3199 22.9844 15.3262C23.5045 14.9999 24.116 15.1949 24.6801 15.0505C24.5269 15.1366 24.3736 15.2227 24.2211 15.3088Z" fill="#002D84"/>
<path d="M0.616834 10.1608C1.02496 9.79773 0.908844 10.1914 0.882735 10.3643C0.558432 12.5165 0.772802 14.6778 0.758373 16.8357C0.758373 16.8607 0.770741 16.8857 0.777611 16.91C0.801659 16.9551 0.794101 16.9933 0.754938 17.0259C0.326198 16.9586 0.534384 16.6184 0.530949 16.4129C0.511024 15.0646 0.519956 13.7163 0.520643 12.368C0.550187 11.7223 0.458805 11.0738 0.5708 10.4302C0.586603 10.3407 0.601718 10.2511 0.616834 10.1608Z" fill="#002D84"/>
<path d="M0.587629 12.3374C0.58969 13.6329 0.585568 14.9292 0.597936 16.2247C0.600684 16.4955 0.490749 16.8023 0.755279 17.0259C0.428911 17.121 0.40555 17.121 0.402114 16.71C0.393182 15.6956 0.404863 14.682 0.414482 13.6676C0.418605 13.2261 0.437843 12.7852 0.450211 12.3443C0.492811 12.2721 0.538159 12.2728 0.587629 12.3374Z" fill="#002D84"/>
<path d="M0.587536 12.3374C0.542188 12.3415 0.496154 12.3436 0.450119 12.3443C0.418513 11.7014 0.312702 11.0543 0.571733 10.4302C0.576542 11.0661 0.582039 11.7014 0.587536 12.3374Z" fill="#002D84"/>
<path d="M25.7376 4.56299C25.7397 7.41092 25.7411 10.2582 25.7424 13.1054C25.5824 12.9686 25.6105 12.7798 25.6105 12.6013C25.6099 10.0901 25.6092 7.57963 25.6105 5.06842C25.6112 4.89138 25.5796 4.70184 25.7376 4.56299Z" fill="#002D84"/>
<path d="M8.34587 11.5401C8.0573 10.641 8.31015 10.2487 9.20884 10.2418C10.6435 10.2313 12.0788 10.2425 13.5141 10.2327C14.0314 10.2293 14.4739 10.3577 14.4904 10.9583C14.5083 11.5894 14.0706 11.7831 13.5154 11.7824C12.0801 11.7817 10.6455 11.7761 9.21021 11.7872C8.8866 11.79 8.61246 11.6762 8.33969 11.5317C8.33969 11.5311 8.34587 11.5401 8.34587 11.5401Z" fill="#002D84"/>
<path d="M9.24219 9.84619C10.0502 9.84619 10.8589 9.84619 11.6669 9.84619C10.8575 9.93366 10.0447 10.1669 9.24219 9.84619Z" fill="#FEFEFE"/>
<path d="M15.4747 5.94364C15.9261 5.79437 15.7846 6.26023 15.7667 6.33313C15.6829 6.66985 15.3709 6.5546 15.1346 6.56224C14.9257 6.56918 14.7732 6.46365 14.8419 6.23662C14.8907 6.07486 15.0164 5.93739 15.1078 5.78882C15.215 5.87699 15.2624 6.10888 15.4747 5.94364Z" fill="#002D84"/>
<path d="M15.4762 5.94358C15.4488 6.08451 15.692 6.20114 15.5271 6.3386C15.4632 6.39205 15.3244 6.40455 15.2413 6.3747C14.9094 6.25598 15.1492 5.98662 15.1087 5.78807C15.2729 5.73947 15.411 5.75405 15.4762 5.94358Z" fill="#F0F0F0"/>
<path d="M13.689 7.33576C13.7556 7.08234 13.8223 6.82824 13.8889 6.57483C13.9789 6.44222 14.0696 6.30961 14.1596 6.177C14.2187 6.65258 14.0366 7.02819 13.689 7.33576Z" fill="#002D84"/>
<path d="M14.4786 7.50542C14.2505 7.88104 13.9187 7.71926 13.6335 7.63525C13.5318 7.6054 13.5793 7.41724 13.6926 7.32837C13.907 7.60331 14.2107 7.47278 14.4786 7.50542Z" fill="#002D84"/>
<path d="M11.8815 4.35394C12.2147 4.35463 12.548 4.35533 12.8812 4.35463C13.1285 4.35463 13.3388 4.38032 13.3443 4.71844C13.3491 5.04059 13.2426 5.22527 12.9018 5.1725C12.3679 5.08988 12.3205 5.39398 12.3432 5.81749C12.3693 6.30835 12.3343 6.80199 12.3508 7.29285C12.3624 7.65318 12.1776 7.71983 11.8739 7.71775C11.5675 7.71567 11.3943 7.63999 11.4081 7.28174C11.4287 6.7645 11.3985 6.24587 11.4156 5.72793C11.428 5.36274 11.3634 5.10932 10.9223 5.17181C10.5705 5.2211 10.4036 5.09335 10.4201 4.70525C10.4379 4.29701 10.7079 4.35463 10.9587 4.35255C11.2659 4.35116 11.5737 4.35324 11.8815 4.35394Z" fill="#002D84"/>
<path d="M19.155 10.3513C20.2193 10.1431 21.2932 10.2604 22.3623 10.2708C22.7732 10.275 23.0013 10.5707 23.0054 10.9942C23.0095 11.4205 22.7745 11.7177 22.3733 11.7337C21.4306 11.7718 20.4804 11.8045 19.5432 11.7253C18.8898 11.6705 18.773 11.1317 19.1605 10.3458C19.1605 10.3465 19.155 10.3513 19.155 10.3513Z" fill="#002D84"/>
<path d="M2.88285 25.5738C2.4445 25.9667 2.49535 25.3836 2.3064 25.2787C2.17311 24.5115 1.91684 23.7617 1.99723 22.9661C3.34524 22.9924 3.35005 22.9931 3.13157 24.3567C3.06629 24.7649 2.96667 25.1683 2.88285 25.5738Z" fill="#002D84"/>
<path d="M25.7575 16.6371C25.4455 16.7468 25.2284 16.5969 24.9199 16.4788C25.3006 16.3219 25.528 16.5496 25.7575 16.6371Z" fill="#F9F9F9"/>
<path d="M21.0385 17.6798C20.9341 17.5041 21.0117 17.2979 21.1505 17.3125C21.3552 17.3333 21.1773 17.4937 21.1464 17.5895C21.1347 17.6263 21.0784 17.6485 21.0385 17.6798Z" fill="#F7F7F7"/>
</svg>
